<svg width="1036" height="1036" viewBox="0 0 1036 1036" fill="none" xmlns="http://www.w3.org/2000/svg">
<circle cx="518" cy="518" r="518" fill="#1507B3"/>
<path d="M160.609 655.851C151.402 655.851 143.219 652.15 136.058 644.747C128.898 637.088 125.318 626.366 125.318 612.581C125.318 605.944 126.085 598.413 127.619 589.989C129.154 581.565 130.944 573.013 132.99 564.333C135.036 555.398 136.826 547.102 138.36 539.443C139.894 531.53 140.662 525.02 140.662 519.915C140.662 514.554 139.639 510.342 137.593 507.278C135.803 503.96 133.373 502.3 130.305 502.3C125.446 502.3 120.459 505.619 115.344 512.256L113.043 510.724C112.787 506.64 113.682 501.79 115.728 496.174C117.774 490.557 120.97 485.196 125.318 480.091C129.665 474.73 135.163 470.263 141.812 466.689C148.717 463.115 156.773 461.328 165.979 461.328C179.533 461.328 189.379 465.285 195.516 473.198C201.654 480.857 204.722 490.174 204.722 501.151C204.722 502.938 204.595 504.853 204.339 506.895C204.339 508.682 204.211 510.469 203.955 512.256C213.162 495.663 222.752 483.027 232.725 474.347C242.954 465.412 252.416 460.945 261.111 460.945C269.295 460.945 275.304 464.136 279.14 470.518C282.976 476.9 284.894 484.558 284.894 493.493C284.894 501.662 283.232 509.959 279.908 518.383C276.839 526.807 272.108 533.827 265.714 539.443C259.577 544.804 252.033 547.357 243.082 547.102L241.548 546.336C241.292 539.699 239.118 534.466 235.027 530.636C230.935 526.807 226.332 524.892 221.217 524.892C214.312 524.892 207.791 528.339 201.654 535.231C195.772 542.124 192.831 552.08 192.831 565.099C192.831 573.013 193.726 581.565 195.516 590.755C197.306 599.945 198.201 607.731 198.201 614.113C198.201 621.771 196.411 628.792 192.831 635.174C189.251 641.556 184.648 646.661 179.021 650.49C173.395 654.064 167.258 655.851 160.609 655.851Z" fill="#51D1FF"/>
<path d="M370.146 657C351.477 657 336.006 653.298 323.731 645.895C311.456 638.237 302.249 628.281 296.112 616.027C289.974 603.519 286.905 590.117 286.905 575.821C286.905 562.291 289.463 548.761 294.577 535.231C299.948 521.446 307.62 508.938 317.593 497.705C327.822 486.473 340.097 477.41 354.418 470.518C368.995 463.625 385.362 460.179 403.519 460.179C426.023 460.179 442.39 465.285 452.619 475.496C463.104 485.452 468.347 497.578 468.347 511.873C468.347 524.127 465.022 535.487 458.373 545.953C451.98 556.164 443.413 564.461 432.672 570.843C421.932 576.97 410.168 580.033 397.381 580.033C390.732 580.033 383.955 579.012 377.051 576.97C370.146 574.927 363.369 571.736 356.72 567.397C357.999 583.224 362.602 594.712 370.53 601.859C378.457 609.007 387.919 612.581 398.916 612.581C406.588 612.581 414.26 611.177 421.932 608.369C429.604 605.306 436.636 601.477 443.029 596.882C449.678 592.031 454.793 586.926 458.373 581.565L461.059 583.479C461.059 596.754 458.246 608.114 452.619 617.559C447.249 626.749 440.089 634.28 431.138 640.152C422.187 646.023 412.342 650.363 401.601 653.171C391.116 655.724 380.631 657 370.146 657ZM378.969 553.612C387.152 553.612 393.801 551.314 398.916 546.719C404.03 541.869 407.866 536.252 410.424 529.87C412.981 523.488 414.26 517.872 414.26 513.022C414.26 507.151 412.597 502.3 409.273 498.471C405.948 494.387 401.345 492.344 395.463 492.344C390.86 492.344 385.746 494.004 380.119 497.322C374.749 500.641 369.89 506.385 365.543 514.554C361.195 522.467 358.382 533.572 357.104 547.868C365.287 551.697 372.575 553.612 378.969 553.612Z" fill="#51D1FF"/>
<path d="M531.763 655.851C522.557 655.851 514.246 652.15 506.83 644.747C499.669 637.088 496.089 626.622 496.089 613.347C496.089 606.71 496.984 599.179 498.774 590.755C500.564 582.075 502.482 573.268 504.528 564.333C506.83 555.398 508.875 546.974 510.665 539.061C512.456 531.147 513.351 524.51 513.351 519.149C513.351 514.809 512.328 511.363 510.282 508.81C508.236 506.002 505.551 504.598 502.226 504.598C497.879 504.598 493.148 507.151 488.033 512.256L485.732 510.724C485.476 506.64 486.371 501.79 488.417 496.174C490.463 490.557 493.787 485.196 498.39 480.091C502.994 474.73 509.003 470.263 516.419 466.689C523.836 463.115 532.658 461.328 542.888 461.328C554.396 461.328 562.963 465.412 568.589 473.581C574.471 481.495 577.411 491.068 577.411 502.3C577.411 503.577 577.411 504.981 577.411 506.512C577.411 507.789 577.284 509.065 577.028 510.342C581.887 502.428 587.513 494.769 593.906 487.366C600.555 479.963 607.971 473.837 616.155 468.986C624.594 463.881 633.672 461.328 643.39 461.328C655.921 461.328 664.616 465.412 669.475 473.581C674.334 481.495 676.763 490.557 676.763 500.769C676.763 502.811 676.635 504.853 676.38 506.895C676.38 508.682 676.252 510.469 675.996 512.256C681.366 504.342 687.248 496.556 693.642 488.898C700.291 480.984 707.835 474.475 716.274 469.369C724.713 464.008 734.431 461.328 745.427 461.328C758.981 461.328 768.187 465.285 773.046 473.198C778.161 481.112 780.718 490.43 780.718 501.151C780.718 510.597 779.567 521.446 777.266 533.7C774.964 545.698 772.663 557.568 770.361 569.311C768.06 581.054 766.909 591.01 766.909 599.179C766.909 604.029 767.548 607.986 768.827 611.05C770.361 614.113 772.791 615.645 776.115 615.645C778.928 615.645 781.485 614.879 783.787 613.347C786.344 611.56 788.134 609.518 789.157 607.22L792.226 608.369C792.226 617.814 789.541 626.111 784.171 633.259C778.8 640.407 772.023 646.023 763.84 650.108C755.657 653.937 747.473 655.851 739.29 655.851C729.316 655.851 720.493 652.533 712.821 645.895C705.405 639.258 701.697 628.281 701.697 612.964C701.697 603.519 702.848 593.308 705.149 582.331C707.707 571.354 710.136 560.759 712.438 550.548C714.995 540.082 716.274 531.53 716.274 524.892C716.274 515.447 712.949 510.724 706.3 510.724C701.441 510.724 696.582 512.767 691.724 516.851C687.12 520.68 682.901 525.914 679.065 532.551C675.485 538.933 672.544 545.698 670.242 552.846C667.941 559.994 666.79 566.886 666.79 573.523C666.79 579.65 667.429 586.415 668.708 593.818C670.242 600.966 671.009 607.859 671.009 614.496C671.009 627.77 667.301 637.982 659.885 645.129C652.469 652.277 643.774 655.851 633.8 655.851C624.594 655.851 616.283 652.788 608.866 646.661C601.706 640.535 598.126 631.344 598.126 619.091C598.126 613.475 598.893 606.71 600.427 598.796C601.962 590.627 603.624 582.203 605.414 573.523C607.46 564.589 609.25 556.037 610.784 547.868C612.319 539.699 613.086 532.551 613.086 526.424C613.086 521.574 612.319 517.745 610.784 514.937C609.506 512.129 606.821 510.724 602.729 510.724C596.847 510.724 591.221 513.66 585.851 519.532C580.48 525.403 575.877 532.551 572.041 540.975C568.205 549.144 565.648 557.058 564.369 564.716C564.113 566.503 563.858 567.907 563.602 568.928C563.602 569.949 563.602 570.46 563.602 570.46C563.602 578.374 564.497 585.649 566.287 592.286C568.077 598.668 568.972 605.306 568.972 612.198C568.972 624.707 565.136 635.174 557.464 643.598C550.048 651.767 541.481 655.851 531.763 655.851Z" fill="#51D1FF"/>
<path d="M883.489 449.457C873.26 449.457 864.821 446.394 858.172 440.267C851.779 433.885 848.582 425.972 848.582 416.526C848.582 406.315 852.418 397.508 860.09 390.105C867.762 382.702 877.096 379 888.093 379C898.322 379 906.633 382.191 913.026 388.573C919.675 394.955 923 402.869 923 412.314C923 422.525 919.164 431.332 911.492 438.736C903.82 445.883 894.486 449.457 883.489 449.457ZM856.638 655.851C846.664 655.851 837.713 652.405 829.786 645.512C821.858 638.365 817.894 627.005 817.894 611.432C817.894 602.498 819.045 594.201 821.347 586.543C823.904 578.629 826.717 570.971 829.786 563.567C833.11 556.164 835.923 549.016 838.225 542.124C840.782 534.976 842.061 527.956 842.061 521.063C842.061 514.937 841.038 510.597 838.992 508.044C836.946 505.236 834.517 503.832 831.704 503.832C827.356 503.832 823.137 506.64 819.045 512.256L816.36 510.724C817.383 500.513 820.579 491.834 825.95 484.686C831.576 477.283 838.353 471.539 846.28 467.454C854.464 463.37 862.519 461.328 870.447 461.328C880.165 461.328 888.604 464.519 895.765 470.901C902.925 477.028 906.505 487.111 906.505 501.151C906.505 509.576 905.227 518.511 902.669 527.956C900.368 537.146 897.555 546.336 894.23 555.526C891.161 564.716 888.348 573.268 885.791 581.182C883.489 589.095 882.339 595.86 882.339 601.477C882.339 606.327 883.234 609.773 885.024 611.815C887.07 613.858 889.243 614.879 891.545 614.879C893.847 614.879 896.02 614.241 898.066 612.964C900.368 611.432 902.03 609.773 903.053 607.986L905.738 608.752C905.738 618.197 903.181 626.494 898.066 633.642C893.207 640.534 887.07 646.023 879.653 650.108C872.237 653.937 864.565 655.851 856.638 655.851Z" fill="#51D1FF"/>
<path d="M182.609 641.851C173.402 641.851 165.219 638.15 158.058 630.747C150.898 623.088 147.318 612.366 147.318 598.581C147.318 591.944 148.085 584.413 149.619 575.989C151.154 567.565 152.944 559.013 154.99 550.333C157.036 541.398 158.826 533.102 160.36 525.443C161.894 517.53 162.662 511.02 162.662 505.915C162.662 500.554 161.639 496.342 159.593 493.278C157.803 489.96 155.373 488.3 152.305 488.3C147.446 488.3 142.459 491.619 137.344 498.256L135.043 496.724C134.787 492.64 135.682 487.79 137.728 482.174C139.774 476.557 142.97 471.196 147.318 466.091C151.665 460.73 157.163 456.263 163.812 452.689C170.717 449.115 178.773 447.328 187.979 447.328C201.533 447.328 211.379 451.285 217.516 459.198C223.654 466.857 226.722 476.174 226.722 487.151C226.722 488.938 226.595 490.853 226.339 492.895C226.339 494.682 226.211 496.469 225.955 498.256C235.162 481.663 244.752 469.027 254.725 460.347C264.954 451.412 274.416 446.945 283.111 446.945C291.295 446.945 297.304 450.136 301.14 456.518C304.976 462.9 306.894 470.558 306.894 479.493C306.894 487.662 305.232 495.959 301.908 504.383C298.839 512.807 294.108 519.827 287.714 525.443C281.577 530.804 274.033 533.357 265.082 533.102L263.548 532.336C263.292 525.699 261.118 520.466 257.027 516.636C252.935 512.807 248.332 510.892 243.217 510.892C236.312 510.892 229.791 514.339 223.654 521.231C217.772 528.124 214.831 538.08 214.831 551.099C214.831 559.013 215.726 567.565 217.516 576.755C219.306 585.945 220.201 593.731 220.201 600.113C220.201 607.771 218.411 614.792 214.831 621.174C211.251 627.556 206.648 632.661 201.021 636.49C195.395 640.064 189.258 641.851 182.609 641.851Z" fill="white"/>
<path d="M392.146 643C373.477 643 358.006 639.298 345.731 631.895C333.456 624.237 324.249 614.281 318.112 602.027C311.974 589.519 308.905 576.117 308.905 561.821C308.905 548.291 311.463 534.761 316.577 521.231C321.948 507.446 329.62 494.938 339.593 483.705C349.822 472.473 362.097 463.41 376.418 456.518C390.995 449.625 407.362 446.179 425.519 446.179C448.023 446.179 464.39 451.285 474.619 461.496C485.104 471.452 490.347 483.578 490.347 497.873C490.347 510.127 487.022 521.487 480.373 531.953C473.98 542.164 465.413 550.461 454.672 556.843C443.932 562.97 432.168 566.033 419.381 566.033C412.732 566.033 405.955 565.012 399.051 562.97C392.146 560.927 385.369 557.736 378.72 553.397C379.999 569.224 384.602 580.712 392.53 587.859C400.457 595.007 409.919 598.581 420.916 598.581C428.588 598.581 436.26 597.177 443.932 594.369C451.604 591.306 458.636 587.477 465.029 582.882C471.678 578.031 476.793 572.926 480.373 567.565L483.059 569.479C483.059 582.754 480.246 594.114 474.619 603.559C469.249 612.749 462.089 620.28 453.138 626.152C444.187 632.023 434.342 636.363 423.601 639.171C413.116 641.724 402.631 643 392.146 643ZM400.969 539.612C409.152 539.612 415.801 537.314 420.916 532.719C426.03 527.869 429.866 522.252 432.424 515.87C434.981 509.488 436.26 503.872 436.26 499.022C436.26 493.151 434.597 488.3 431.273 484.471C427.948 480.387 423.345 478.344 417.463 478.344C412.86 478.344 407.746 480.004 402.119 483.322C396.749 486.641 391.89 492.385 387.543 500.554C383.195 508.467 380.382 519.572 379.104 533.868C387.287 537.697 394.575 539.612 400.969 539.612Z" fill="white"/>
<path d="M553.763 641.851C544.557 641.851 536.246 638.15 528.83 630.747C521.669 623.088 518.089 612.622 518.089 599.347C518.089 592.71 518.984 585.179 520.774 576.755C522.564 568.075 524.482 559.268 526.528 550.333C528.83 541.398 530.875 532.974 532.665 525.061C534.456 517.147 535.351 510.51 535.351 505.149C535.351 500.809 534.328 497.363 532.282 494.81C530.236 492.002 527.551 490.598 524.226 490.598C519.879 490.598 515.148 493.151 510.033 498.256L507.732 496.724C507.476 492.64 508.371 487.79 510.417 482.174C512.463 476.557 515.787 471.196 520.39 466.091C524.994 460.73 531.003 456.263 538.419 452.689C545.836 449.115 554.658 447.328 564.888 447.328C576.396 447.328 584.963 451.412 590.589 459.581C596.471 467.495 599.411 477.068 599.411 488.3C599.411 489.577 599.411 490.981 599.411 492.512C599.411 493.789 599.284 495.065 599.028 496.342C603.887 488.428 609.513 480.769 615.906 473.366C622.555 465.963 629.971 459.837 638.155 454.986C646.594 449.881 655.672 447.328 665.39 447.328C677.921 447.328 686.616 451.412 691.475 459.581C696.334 467.495 698.763 476.557 698.763 486.769C698.763 488.811 698.635 490.853 698.38 492.895C698.38 494.682 698.252 496.469 697.996 498.256C703.366 490.342 709.248 482.556 715.642 474.898C722.291 466.984 729.835 460.475 738.274 455.369C746.713 450.008 756.431 447.328 767.427 447.328C780.981 447.328 790.187 451.285 795.046 459.198C800.161 467.112 802.718 476.43 802.718 487.151C802.718 496.597 801.567 507.446 799.266 519.7C796.964 531.698 794.663 543.568 792.361 555.311C790.06 567.054 788.909 577.01 788.909 585.179C788.909 590.029 789.548 593.986 790.827 597.05C792.361 600.113 794.791 601.645 798.115 601.645C800.928 601.645 803.485 600.879 805.787 599.347C808.344 597.56 810.134 595.518 811.157 593.22L814.226 594.369C814.226 603.814 811.541 612.111 806.171 619.259C800.8 626.407 794.023 632.023 785.84 636.108C777.657 639.937 769.473 641.851 761.29 641.851C751.316 641.851 742.493 638.533 734.821 631.895C727.405 625.258 723.697 614.281 723.697 598.964C723.697 589.519 724.848 579.308 727.149 568.331C729.707 557.354 732.136 546.759 734.438 536.548C736.995 526.082 738.274 517.53 738.274 510.892C738.274 501.447 734.949 496.724 728.3 496.724C723.441 496.724 718.582 498.767 713.724 502.851C709.12 506.68 704.901 511.914 701.065 518.551C697.485 524.933 694.544 531.698 692.242 538.846C689.941 545.994 688.79 552.886 688.79 559.523C688.79 565.65 689.429 572.415 690.708 579.818C692.242 586.966 693.009 593.859 693.009 600.496C693.009 613.77 689.301 623.982 681.885 631.129C674.469 638.277 665.774 641.851 655.8 641.851C646.594 641.851 638.283 638.788 630.866 632.661C623.706 626.535 620.126 617.344 620.126 605.091C620.126 599.475 620.893 592.71 622.427 584.796C623.962 576.627 625.624 568.203 627.414 559.523C629.46 550.589 631.25 542.037 632.784 533.868C634.319 525.699 635.086 518.551 635.086 512.424C635.086 507.574 634.319 503.745 632.784 500.937C631.506 498.129 628.821 496.724 624.729 496.724C618.847 496.724 613.221 499.66 607.851 505.532C602.48 511.403 597.877 518.551 594.041 526.975C590.205 535.144 587.648 543.058 586.369 550.716C586.113 552.503 585.858 553.907 585.602 554.928C585.602 555.949 585.602 556.46 585.602 556.46C585.602 564.374 586.497 571.649 588.287 578.286C590.077 584.668 590.972 591.306 590.972 598.198C590.972 610.707 587.136 621.174 579.464 629.598C572.048 637.767 563.481 641.851 553.763 641.851Z" fill="white"/>
<path d="M905.489 435.457C895.26 435.457 886.821 432.394 880.172 426.267C873.779 419.885 870.582 411.972 870.582 402.526C870.582 392.315 874.418 383.508 882.09 376.105C889.762 368.702 899.096 365 910.093 365C920.322 365 928.633 368.191 935.026 374.573C941.675 380.955 945 388.869 945 398.314C945 408.525 941.164 417.332 933.492 424.736C925.82 431.883 916.486 435.457 905.489 435.457ZM878.638 641.851C868.664 641.851 859.713 638.405 851.786 631.512C843.858 624.365 839.894 613.005 839.894 597.432C839.894 588.498 841.045 580.201 843.347 572.543C845.904 564.629 848.717 556.971 851.786 549.567C855.11 542.164 857.923 535.016 860.225 528.124C862.782 520.976 864.061 513.956 864.061 507.063C864.061 500.937 863.038 496.597 860.992 494.044C858.946 491.236 856.517 489.832 853.704 489.832C849.356 489.832 845.137 492.64 841.045 498.256L838.36 496.724C839.383 486.513 842.579 477.834 847.95 470.686C853.576 463.283 860.353 457.539 868.28 453.454C876.464 449.37 884.519 447.328 892.447 447.328C902.165 447.328 910.604 450.519 917.765 456.901C924.925 463.028 928.505 473.111 928.505 487.151C928.505 495.576 927.227 504.511 924.669 513.956C922.368 523.146 919.555 532.336 916.23 541.526C913.161 550.716 910.348 559.268 907.791 567.182C905.489 575.095 904.339 581.86 904.339 587.477C904.339 592.327 905.234 595.773 907.024 597.815C909.07 599.858 911.243 600.879 913.545 600.879C915.847 600.879 918.02 600.241 920.066 598.964C922.368 597.432 924.03 595.773 925.053 593.986L927.738 594.752C927.738 604.197 925.181 612.494 920.066 619.642C915.207 626.534 909.07 632.023 901.653 636.108C894.237 639.937 886.565 641.851 878.638 641.851Z" fill="white"/>
</svg>
